<?xml version="1.0" encoding="utf-8"?>
<!-- Generator: Adobe Illustrator 17.0.0, SVG Export Plug-In . SVG Version: 6.00 Build 0)  -->
<!DOCTYPE svg PUBLIC "-//W3C//DTD SVG 1.1//EN" "http://www.w3.org/Graphics/SVG/1.1/DTD/svg11.dtd">
<svg version="1.1" id="Шар_1" xmlns="http://www.w3.org/2000/svg" xmlns:xlink="http://www.w3.org/1999/xlink" x="0px" y="0px"
	 width="60px" height="60px" viewBox="0 0 60 60" enable-background="new 0 0 60 60" xml:space="preserve">
<g>
	<g>
		<path fill="#FFFFFF" d="M43.936,35.063c-0.994-1.035-2.194-1.588-3.464-1.588c-1.261,0-2.47,0.543-3.505,1.578l-3.239,3.229
			c-0.267-0.144-0.533-0.277-0.789-0.41c-0.369-0.185-0.718-0.359-1.015-0.543c-3.034-1.927-5.791-4.438-8.436-7.687
			c-1.281-1.62-2.142-2.983-2.767-4.366c0.84-0.769,1.619-1.569,2.378-2.337c0.287-0.287,0.574-0.584,0.861-0.871
			c2.152-2.152,2.152-4.94,0-7.093l-2.799-2.798c-0.317-0.318-0.646-0.646-0.953-0.973c-0.615-0.636-1.261-1.292-1.927-1.907
			c-0.994-0.984-2.184-1.506-3.434-1.506c-1.251,0-2.46,0.522-3.485,1.506l-0.021,0.021l-3.485,3.516
			c-1.312,1.312-2.06,2.911-2.224,4.766c-0.246,2.993,0.636,5.781,1.312,7.605c1.66,4.479,4.141,8.63,7.841,13.079
			c4.489,5.361,9.891,9.594,16.061,12.577c2.357,1.117,5.504,2.439,9.02,2.665c0.216,0.011,0.441,0.021,0.646,0.021
			c2.368,0,4.356-0.85,5.914-2.542c0.01-0.02,0.031-0.03,0.041-0.051c0.533-0.646,1.148-1.23,1.794-1.855
			c0.44-0.421,0.891-0.861,1.332-1.322c1.015-1.055,1.547-2.286,1.547-3.546c0-1.271-0.543-2.491-1.578-3.516L43.936,35.063z
			 M47.606,45.856C47.596,45.856,47.596,45.866,47.606,45.856c-0.4,0.431-0.81,0.82-1.251,1.251
			c-0.666,0.636-1.343,1.302-1.978,2.05c-1.035,1.107-2.255,1.63-3.854,1.63c-0.154,0-0.318,0-0.471-0.01
			c-3.044-0.195-5.873-1.384-7.995-2.398c-5.802-2.809-10.896-6.796-15.129-11.849c-3.495-4.213-5.832-8.108-7.38-12.29
			c-0.953-2.552-1.302-4.541-1.148-6.416c0.103-1.2,0.563-2.194,1.414-3.044l3.495-3.495c0.502-0.471,1.035-0.728,1.558-0.728
			c0.646,0,1.168,0.39,1.496,0.718l0.03,0.031c0.626,0.585,1.22,1.189,1.845,1.835c0.318,0.328,0.646,0.656,0.973,0.994l2.798,2.798
			c1.086,1.086,1.086,2.091,0,3.177c-0.297,0.297-0.584,0.595-0.881,0.881c-0.861,0.881-1.681,1.702-2.572,2.501
			c-0.02,0.021-0.041,0.031-0.052,0.051c-0.881,0.882-0.717,1.743-0.533,2.327l0.031,0.093c0.728,1.763,1.753,3.423,3.311,5.402
			l0.01,0.01c2.829,3.485,5.812,6.202,9.102,8.282c0.42,0.267,0.851,0.482,1.261,0.687c0.369,0.185,0.718,0.359,1.015,0.543
			c0.041,0.021,0.082,0.051,0.123,0.072c0.348,0.174,0.676,0.256,1.014,0.256c0.851,0,1.384-0.533,1.558-0.707L38.904,37
			c0.349-0.349,0.902-0.769,1.548-0.769c0.636,0,1.158,0.399,1.476,0.748l5.668,5.668C48.652,43.693,48.652,44.77,47.606,45.856
			L47.606,45.856z M47.606,45.856"/>
		<path fill="#FFFFFF" d="M31.801,16.531c2.685,0.451,5.125,1.722,7.072,3.67c1.947,1.947,3.208,4.387,3.669,7.072
			c0.113,0.677,0.697,1.148,1.363,1.148c0.082,0,0.154-0.011,0.236-0.021c0.758-0.123,1.261-0.84,1.138-1.599
			c-0.554-3.249-2.091-6.212-4.438-8.559c-2.347-2.347-5.31-3.885-8.559-4.438c-0.758-0.123-1.465,0.379-1.599,1.128
			C30.55,15.68,31.042,16.408,31.801,16.531L31.801,16.531z M31.801,16.531"/>
		<path fill="#FFFFFF" d="M54.063,26.402c-0.912-5.35-3.434-10.219-7.308-14.094C42.881,8.434,38.012,5.912,32.662,5
			c-0.748-0.133-1.455,0.379-1.588,1.128c-0.123,0.758,0.379,1.466,1.138,1.599c4.777,0.81,9.133,3.075,12.597,6.529
			c3.464,3.464,5.719,7.821,6.529,12.597c0.113,0.676,0.697,1.148,1.363,1.148c0.082,0,0.154-0.01,0.236-0.021
			C53.684,27.868,54.197,27.15,54.063,26.402L54.063,26.402z M54.063,26.402"/>
	</g>
</g>
</svg>
