<?xml version="1.0" encoding="utf-8"?>
<!-- Generator: Adobe Illustrator 17.0.0, SVG Export Plug-In . SVG Version: 6.00 Build 0)  -->
<!DOCTYPE svg PUBLIC "-//W3C//DTD SVG 1.1//EN" "http://www.w3.org/Graphics/SVG/1.1/DTD/svg11.dtd">
<svg version="1.1" id="Шар_1" xmlns="http://www.w3.org/2000/svg" xmlns:xlink="http://www.w3.org/1999/xlink" x="0px" y="0px"
	 width="200px" height="200px" viewBox="0 0 200 200" enable-background="new 0 0 200 200" xml:space="preserve">
<g>
	<path fill="#FFFFFF" d="M57.744,109.368c0-14.377-15.868-34.976-16.544-35.846l-1.879-2.42l-1.879,2.42
		c-0.675,0.87-16.544,21.469-16.544,35.846c0,10.158,8.265,18.423,18.423,18.423S57.744,119.527,57.744,109.368z M39.321,123.033
		c-7.535,0-13.664-6.13-13.664-13.664c0-10.031,9.528-24.54,13.665-30.366c4.138,5.823,13.664,20.323,13.664,30.366
		C52.985,116.903,46.855,123.033,39.321,123.033z"/>
	<path fill="#FFFFFF" d="M39.321,115.984c-3.824,0-6.935-3.111-6.935-6.935h-4.758c0,6.448,5.245,11.693,11.693,11.693l0.076,0
		l-0.039-4.758H39.321z"/>
	<path fill="#FFFFFF" d="M118.423,109.368c0-14.377-15.868-34.976-16.544-35.846L100,71.102l-1.879,2.42
		c-0.675,0.87-16.544,21.469-16.544,35.846c0,10.158,8.265,18.423,18.423,18.423S118.423,119.527,118.423,109.368z M100,123.033
		c-7.535,0-13.664-6.13-13.664-13.664c0-10.031,9.528-24.54,13.665-30.366c4.138,5.823,13.664,20.323,13.664,30.366
		C113.665,116.903,107.535,123.033,100,123.033z"/>
	<path fill="#FFFFFF" d="M100,115.984c-3.824,0-6.935-3.111-6.935-6.935h-4.758c0,6.448,5.246,11.693,11.693,11.693l0.076,0
		l-0.039-4.758H100z"/>
	<path fill="#FFFFFF" d="M162.558,73.522l-1.879-2.42l-1.879,2.42c-0.675,0.87-16.544,21.469-16.544,35.846
		c0,10.158,8.265,18.423,18.423,18.423s18.423-8.265,18.423-18.423C179.102,94.991,163.234,74.392,162.558,73.522z M160.679,123.033
		c-7.535,0-13.664-6.13-13.664-13.664c0-10.031,9.528-24.54,13.665-30.366c4.138,5.823,13.664,20.323,13.664,30.366
		C174.344,116.903,168.214,123.033,160.679,123.033z"/>
	<path fill="#FFFFFF" d="M160.679,115.984c-3.824,0-6.935-3.111-6.935-6.935h-4.758c0,6.448,5.245,11.693,11.693,11.693l0.076,0
		l-0.039-4.758H160.679z"/>
	<path fill="#FFFFFF" d="M69.66,77.361c10.158,0,18.423-8.265,18.423-18.423c0-14.377-15.868-34.976-16.544-35.847l-1.879-2.42
		l-1.879,2.42c-0.675,0.87-16.544,21.469-16.544,35.847C51.237,69.096,59.502,77.361,69.66,77.361z M69.661,28.571
		c4.138,5.823,13.664,20.323,13.664,30.366c0,7.535-6.13,13.664-13.664,13.664s-13.664-6.13-13.664-13.664
		C55.996,48.907,65.524,34.398,69.661,28.571z"/>
	<path fill="#FFFFFF" d="M69.66,70.312h0.057v-4.758H69.66c-3.824,0-6.935-3.111-6.935-6.935h-4.758
		C57.967,65.066,63.213,70.312,69.66,70.312z"/>
	<path fill="#FFFFFF" d="M130.34,77.361c10.158,0,18.423-8.265,18.423-18.423c0-14.377-15.868-34.976-16.544-35.847l-1.879-2.42
		l-1.879,2.42c-0.675,0.87-16.544,21.469-16.544,35.847C111.917,69.096,120.181,77.361,130.34,77.361z M130.34,28.571
		c4.138,5.823,13.664,20.323,13.664,30.366c0,7.535-6.13,13.664-13.664,13.664s-13.664-6.13-13.664-13.664
		C116.675,48.907,126.203,34.398,130.34,28.571z"/>
	<path fill="#FFFFFF" d="M130.34,70.312h0.057v-4.758h-0.057c-3.824,0-6.935-3.111-6.935-6.935h-4.758
		C118.646,65.066,123.892,70.312,130.34,70.312z"/>
	<path fill="#FFFFFF" d="M69.66,121.639l-1.879,2.42c-0.675,0.87-16.544,21.469-16.544,35.847c0,10.158,8.265,18.423,18.423,18.423
		s18.423-8.265,18.423-18.423c0-14.377-15.868-34.976-16.544-35.847L69.66,121.639z M69.66,173.57
		c-7.535,0-13.664-6.13-13.664-13.664c0-10.031,9.528-24.54,13.665-30.366c4.138,5.823,13.664,20.323,13.664,30.366
		C83.325,167.44,77.195,173.57,69.66,173.57z"/>
	<path fill="#FFFFFF" d="M62.726,159.587h-4.758c0,6.448,5.246,11.693,11.693,11.693l0.076,0l-0.039-4.758H69.66
		C65.837,166.522,62.726,163.41,62.726,159.587z"/>
	<path fill="#FFFFFF" d="M130.34,121.639l-1.879,2.42c-0.675,0.87-16.544,21.469-16.544,35.847c0,10.158,8.265,18.423,18.423,18.423
		s18.423-8.265,18.423-18.423c0-14.377-15.868-34.976-16.544-35.847L130.34,121.639z M130.34,173.57
		c-7.535,0-13.664-6.13-13.664-13.664c0-10.031,9.528-24.54,13.665-30.366c4.138,5.823,13.664,20.323,13.664,30.366
		C144.004,167.44,137.874,173.57,130.34,173.57z"/>
	<path fill="#FFFFFF" d="M123.405,159.587h-4.758c0,6.448,5.245,11.693,11.693,11.693l0.076,0l-0.038-4.758h-0.038
		C126.516,166.522,123.405,163.41,123.405,159.587z"/>
</g>
</svg>
