<?xml version="1.0" encoding="utf-8"?>
<!-- Generator: Adobe Illustrator 17.0.0, SVG Export Plug-In . SVG Version: 6.00 Build 0)  -->
<!DOCTYPE svg PUBLIC "-//W3C//DTD SVG 1.1//EN" "http://www.w3.org/Graphics/SVG/1.1/DTD/svg11.dtd">
<svg version="1.1" id="Шар_1" xmlns="http://www.w3.org/2000/svg" xmlns:xlink="http://www.w3.org/1999/xlink" x="0px" y="0px"
	 width="200px" height="200px" viewBox="0 0 200 200" enable-background="new 0 0 200 200" xml:space="preserve">
<g>
	<path fill="#FFFFFF" d="M59.311,178.477c-7.25,0-13.128-5.878-13.128-13.128V81.331c0-7.25,5.878-13.128,13.128-13.128
		c2.448-0.002,4.845,0.699,6.905,2.022c0.533,0.341,0.924,0.863,1.103,1.47c1.039,3.504,2.616,6.826,4.674,9.846
		c0.292,0.435,0.448,0.947,0.446,1.47v19.324c0,1.45-1.176,2.626-2.626,2.626s-2.626-1.176-2.626-2.626V83.799
		c-1.946-2.988-3.491-6.219-4.595-9.61c-1.023-0.494-2.146-0.745-3.282-0.735c-4.35,0-7.877,3.527-7.877,7.877v84.019
		c0,4.35,3.527,7.877,7.877,7.877s7.877-3.527,7.877-7.877l0,0v-52.512c0-1.45,1.176-2.626,2.626-2.626s2.626,1.176,2.626,2.626
		v52.512C72.439,172.6,66.561,178.477,59.311,178.477z"/>
	<path fill="#FFFFFF" d="M80.315,178.477c-7.25,0-13.128-5.878-13.128-13.128v-52.512c0-1.45,1.176-2.626,2.626-2.626
		s2.626,1.176,2.626,2.626v52.512c0,4.35,3.527,7.877,7.877,7.877s7.877-3.527,7.877-7.877l0,0v-39.384
		c0-1.45,1.176-2.626,2.626-2.626s2.626,1.176,2.626,2.626v39.384C93.443,172.6,87.566,178.477,80.315,178.477z"/>
	<path fill="#FFFFFF" d="M90.818,115.463c-1.45,0-2.626-1.176-2.626-2.626v-12.682c-5.94-2.036-11.331-5.415-15.754-9.872v12.051
		c0,1.45-1.176,2.626-2.626,2.626s-2.626-1.176-2.626-2.626V83.011c-0.003-1.45,1.17-2.628,2.62-2.631
		c0.877-0.002,1.696,0.434,2.185,1.161c4.667,6.863,11.586,11.878,19.561,14.178c1.159,0.337,1.938,1.42,1.89,2.626v14.493
		C93.443,114.288,92.268,115.463,90.818,115.463z"/>
	<path fill="#FFFFFF" d="M101.32,178.477c-7.25,0-13.128-5.878-13.128-13.128V123.34c0-1.45,1.176-2.626,2.626-2.626
		s2.626,1.176,2.626,2.626v42.009c0,4.35,3.527,7.877,7.877,7.877s7.877-3.527,7.877-7.877l0,0V123.34
		c0-1.45,1.176-2.626,2.626-2.626s2.626,1.176,2.626,2.626v42.009C114.448,172.6,108.57,178.477,101.32,178.477z"/>
	<path fill="#FFFFFF" d="M111.822,115.463c-1.45,0-2.626-1.176-2.626-2.626v-11.264c-5.202,1.015-10.551,1.015-15.754,0v8.638
		c0,1.45-1.176,2.626-2.626,2.626s-2.626-1.176-2.626-2.626V98.239c-0.054-1.449,1.077-2.668,2.526-2.722
		c0.273-0.01,0.546,0.022,0.809,0.096c6.394,1.814,13.167,1.814,19.561,0c1.392-0.407,2.85,0.391,3.257,1.783
		c0.08,0.273,0.115,0.558,0.104,0.843v14.598C114.448,114.288,113.272,115.463,111.822,115.463z"/>
	<path fill="#FFFFFF" d="M122.325,178.477c-7.25,0-13.128-5.878-13.128-13.128V123.34h5.251v42.009c0,4.35,3.527,7.877,7.877,7.877
		s7.877-3.527,7.877-7.877l0,0v-47.261h5.251v47.261C135.453,172.6,129.575,178.477,122.325,178.477z"/>
	<path fill="#FFFFFF" d="M111.822,115.463c-1.45,0-2.626-1.176-2.626-2.626V98.239c-0.048-1.206,0.732-2.289,1.89-2.626
		c7.974-2.3,14.894-7.315,19.561-14.178c0.809-1.204,2.44-1.524,3.644-0.715c0.728,0.489,1.163,1.309,1.161,2.185v19.429
		c0,1.45-1.176,2.626-2.626,2.626s-2.626-1.176-2.626-2.626V90.31c-4.423,4.458-9.813,7.836-15.754,9.872v12.655
		C114.448,114.288,113.272,115.463,111.822,115.463L111.822,115.463z"/>
	<path fill="#FFFFFF" d="M143.329,178.477c-7.25,0-13.128-5.878-13.128-13.128v-52.512c0-1.45,1.176-2.626,2.626-2.626
		s2.626,1.176,2.626,2.626v52.512c0,4.35,3.527,7.877,7.877,7.877s7.877-3.527,7.877-7.877l0,0V81.331
		c0.009-2.083-0.824-4.081-2.311-5.54c-2.325-2.33-5.854-2.969-8.848-1.602c-1.101,3.392-2.646,6.623-4.595,9.61V99.71
		c0,1.45-1.176,2.626-2.626,2.626c-1.45,0-2.626-1.176-2.626-2.626V83.011c-0.001-0.524,0.154-1.036,0.446-1.47
		c2.108-3.019,3.73-6.35,4.805-9.872c0.179-0.621,0.581-1.154,1.129-1.497c6.219-3.727,14.282-1.707,18.009,4.513
		c1.204,2.009,1.849,4.304,1.867,6.646v84.019C156.457,172.6,150.58,178.477,143.329,178.477z"/>
	<path fill="#FFFFFF" d="M48.808,160.098H38.306c-1.45,0-2.626-1.176-2.626-2.626s1.176-2.626,2.626-2.626h10.502
		c1.45,0,2.626,1.176,2.626,2.626S50.258,160.098,48.808,160.098z"/>
	<path fill="#FFFFFF" d="M159.083,160.098h-5.251c-1.45,0-2.626-1.176-2.626-2.626s1.176-2.626,2.626-2.626h5.251
		c1.45,0,2.626-1.176,2.626-2.626v-5.251c0-1.45,1.176-2.626,2.626-2.626s2.626,1.176,2.626,2.626v5.251
		C166.96,156.572,163.433,160.098,159.083,160.098z"/>
	<path fill="#FFFFFF" d="M100.27,83.956c-9.57-0.016-17.315-7.788-17.299-17.359c0.01-6.059,3.185-11.673,8.372-14.805
		c0.43-0.273,0.936-0.402,1.444-0.368c0.52-7.149,4.62-13.551,10.896-17.014c1.268-0.703,2.866-0.244,3.569,1.024
		c0.346,0.625,0.423,1.365,0.212,2.048c-0.405,1.33-0.634,2.707-0.683,4.096v0.578c-0.017,4.23,1.667,8.289,4.674,11.264
		c1.793,1.643,3.293,3.578,4.437,5.724c1.982,4.152,2.237,8.92,0.709,13.259C114.147,79.32,107.609,83.946,100.27,83.956z
		 M91.185,58.698c-4.379,5.031-3.85,12.66,1.181,17.04c2.192,1.908,4.998,2.961,7.904,2.967c6.656,0.015,12.063-5.369,12.078-12.025
		c0-0.018,0-0.035,0-0.053c0.011-1.817-0.393-3.613-1.182-5.251c-0.896-1.604-2.049-3.049-3.413-4.28
		c-3.8-3.772-6.017-8.853-6.196-14.204c-0.439,0.551-0.842,1.13-1.208,1.733c-3.205,5.28-3.083,11.934,0.315,17.093
		c1.066,0.986,1.13,2.649,0.144,3.715c-0.986,1.066-2.649,1.13-3.715,0.144c-2.673-1.588-4.756-4.002-5.934-6.879H91.185z"/>
	<path fill="#FFFFFF" d="M101.32,102.335c-13.498,0.016-26.122-6.675-33.686-17.854c-2.324-3.479-4.095-7.296-5.251-11.316
		C56.04,51.603,68.378,28.981,89.94,22.638s44.184,5.995,50.527,27.558c2.206,7.498,2.206,15.472,0,22.969
		c-3.969,13.368-14.498,23.778-27.91,27.595C108.905,101.815,105.122,102.345,101.32,102.335z M101.32,26.193
		C81.744,26.18,65.864,42.039,65.85,61.614c-0.011,15.833,10.48,29.753,25.703,34.104c14.734,4.231,30.519-1.49,39.121-14.178
		c2.098-3.021,3.711-6.352,4.779-9.872c5.525-18.795-5.233-38.511-24.028-44.035C108.143,26.669,104.74,26.184,101.32,26.193z"/>
</g>
</svg>
