<?xml version="1.0" encoding="utf-8"?>
<!-- Generator: Adobe Illustrator 17.0.0, SVG Export Plug-In . SVG Version: 6.00 Build 0)  -->
<!DOCTYPE svg PUBLIC "-//W3C//DTD SVG 1.1//EN" "http://www.w3.org/Graphics/SVG/1.1/DTD/svg11.dtd">
<svg version="1.1" id="Шар_1" xmlns="http://www.w3.org/2000/svg" xmlns:xlink="http://www.w3.org/1999/xlink" x="0px" y="0px"
	 width="200px" height="200px" viewBox="0 0 200 200" enable-background="new 0 0 200 200" xml:space="preserve">
<g>
	<path fill="#FFFFFF" d="M100.437,159.227c0,2.035,1.65,3.685,3.685,3.685c19.324,0,35.044-15.72,35.044-35.042
		c0-2.035-1.648-3.685-3.685-3.685c-2.034,0-3.685,1.65-3.685,3.685c0,15.26-12.414,27.672-27.674,27.672
		C102.087,155.542,100.437,157.193,100.437,159.227L100.437,159.227z"/>
	<g>
		<path fill="#FFFFFF" d="M104.122,29.571C95.487,42.725,70.9,81.622,62.287,110.549l66.3-39.895
			C119.193,52.997,109.054,37.084,104.122,29.571z"/>
		<path fill="#FFFFFF" d="M104.122,19.243c-0.164,0-0.322,0.038-0.482,0.059h0.964C104.443,19.281,104.286,19.243,104.122,19.243z"
			/>
		<path fill="#FFFFFF" d="M148.992,127.87c0,24.741-20.129,44.868-44.87,44.868c-20.713,0-38.185-14.11-43.328-33.22l-6.538,3.934
			c6.645,21.217,26.486,36.656,49.866,36.656c28.805,0,52.24-23.433,52.24-52.238c0-10.829-4.528-24.936-10.837-39.338l-6.357,3.826
			C144.928,105.581,148.992,118.301,148.992,127.87z"/>
		<path fill="#FFFFFF" d="M101.085,20.843c-1.799,2.62-39.86,58.377-47.767,95.103l8.969-5.397
			c8.614-28.927,33.2-67.825,41.835-80.978c4.932,7.513,15.071,23.426,24.465,41.083l6.35-3.821
			c-12.768-24.015-26.705-44.429-27.778-45.99c-0.593-0.867-1.53-1.404-2.555-1.541h-0.964
			C102.614,19.439,101.678,19.976,101.085,20.843z"/>
		<path fill="#FFFFFF" d="M19.871,136.072c-1.893,1.14-2.504,3.598-1.365,5.49c0.75,1.247,2.074,1.938,3.431,1.938
			c0.702,0,1.413-0.186,2.059-0.573l27.924-16.803c0.133-3.164,0.623-6.581,1.398-10.178L19.871,136.072z"/>
		<path fill="#FFFFFF" d="M132.278,77.77c-1.208-2.392-2.443-4.769-3.691-7.116l-66.3,39.895c-1.136,3.816-1.987,7.451-2.493,10.838
			L132.278,77.77z"/>
		<path fill="#FFFFFF" d="M173.562,52.927c1.893-1.139,2.504-3.597,1.365-5.49c-1.14-1.893-3.598-2.504-5.49-1.365l-34.5,20.76
			c1.246,2.343,2.479,4.72,3.689,7.117L173.562,52.927z"/>
		<path fill="#FFFFFF" d="M132.278,77.77l6.348-3.82c-1.21-2.397-2.443-4.774-3.689-7.117l-6.35,3.821
			C129.835,73,131.07,75.377,132.278,77.77z"/>
		<path fill="#FFFFFF" d="M62.287,110.549l-8.969,5.397c-0.774,3.597-1.264,7.014-1.398,10.178l7.873-4.738
			C60.3,118,61.15,114.365,62.287,110.549z"/>
		<path fill="#FFFFFF" d="M59.375,131.034l-6.966,4.192c0.399,2.819,1.015,5.569,1.847,8.226l6.538-3.934
			C60.058,136.784,59.579,133.947,59.375,131.034z"/>
		<path fill="#FFFFFF" d="M139.167,92.358l6.357-3.826c-1.068-2.438-2.187-4.884-3.344-7.325l-6.35,3.821
			C136.991,87.477,138.108,89.926,139.167,92.358z"/>
	</g>
</g>
</svg>
