<?xml version="1.0" encoding="utf-8"?>
<!-- Generator: Adobe Illustrator 17.0.0, SVG Export Plug-In . SVG Version: 6.00 Build 0)  -->
<!DOCTYPE svg PUBLIC "-//W3C//DTD SVG 1.1//EN" "http://www.w3.org/Graphics/SVG/1.1/DTD/svg11.dtd">
<svg version="1.1" id="Шар_1" xmlns="http://www.w3.org/2000/svg" xmlns:xlink="http://www.w3.org/1999/xlink" x="0px" y="0px"
	 width="200px" height="200px" viewBox="0 0 200 200" enable-background="new 0 0 200 200" xml:space="preserve">
<path fill="#FFFFFF" d="M104.122,19.243c-1.214,0-2.351,0.597-3.037,1.6c-2.008,2.925-49.204,72.059-49.204,107.027
	c0,28.804,23.436,52.238,52.241,52.238s52.24-23.433,52.24-52.238c0-34.968-47.193-104.102-49.203-107.027
	C106.473,19.84,105.335,19.243,104.122,19.243L104.122,19.243z M104.122,172.738c-24.741,0-44.871-20.127-44.871-44.868
	c0-27.811,34.33-82.242,44.871-98.299c10.541,16.057,44.87,70.488,44.87,98.299C148.992,152.611,128.863,172.738,104.122,172.738
	L104.122,172.738z"/>
<path fill="#FFFFFF" d="M100.437,159.227c0,2.035,1.65,3.685,3.685,3.685c19.324,0,35.044-15.72,35.044-35.042
	c0-2.035-1.648-3.685-3.685-3.685c-2.034,0-3.685,1.65-3.685,3.685c0,15.26-12.414,27.672-27.674,27.672
	C102.087,155.542,100.437,157.193,100.437,159.227L100.437,159.227z"/>
<path fill="#FFFFFF" d="M176.375,34.168h-7.161v-7.162c0-2.034-1.65-3.685-3.685-3.685c-2.036,0-3.685,1.651-3.685,3.685v7.162
	h-7.161c-2.036,0-3.685,1.65-3.685,3.685c0,2.034,1.648,3.685,3.685,3.685h7.161v7.161c0,2.034,1.648,3.685,3.685,3.685
	c2.035,0,3.685-1.651,3.685-3.685v-7.161h7.161c2.035,0,3.685-1.651,3.685-3.685C180.059,35.818,178.409,34.168,176.375,34.168
	L176.375,34.168z"/>
<path fill="#FFFFFF" d="M43.31,145.124h-7.161v-7.162c0-2.034-1.65-3.685-3.685-3.685c-2.037,0-3.685,1.651-3.685,3.685v7.162
	h-7.161c-2.034,0-3.685,1.65-3.685,3.685c0,2.034,1.651,3.685,3.685,3.685h7.161v7.161c0,2.034,1.648,3.685,3.685,3.685
	c2.035,0,3.685-1.651,3.685-3.685v-7.161h7.161c2.035,0,3.685-1.651,3.685-3.685C46.994,146.774,45.344,145.124,43.31,145.124
	L43.31,145.124z"/>
</svg>
