<?xml version="1.0" encoding="utf-8"?>
<!-- Generator: Adobe Illustrator 17.0.0, SVG Export Plug-In . SVG Version: 6.00 Build 0)  -->
<!DOCTYPE svg PUBLIC "-//W3C//DTD SVG 1.1//EN" "http://www.w3.org/Graphics/SVG/1.1/DTD/svg11.dtd">
<svg version="1.1" id="Шар_1" xmlns="http://www.w3.org/2000/svg" xmlns:xlink="http://www.w3.org/1999/xlink" x="0px" y="0px"
	 width="200px" height="200px" viewBox="0 0 200 200" enable-background="new 0 0 200 200" xml:space="preserve">
<g>
	<path fill="#FFFFFF" d="M105.757,72.501c0.811,0.996,2.09,1.422,3.686,1.422c9.052,0,28.203-13.686,28.422-13.86
		c4.517-3.661,5.213-10.308,1.555-14.825c-3.657-4.512-10.308-5.208-14.821-1.56C124.341,43.888,100.354,65.822,105.757,72.501
		L105.757,72.501z M128.319,48.279c0.859-0.693,1.883-1.029,2.909-1.029c1.349,0,2.686,0.583,3.597,1.713
		c0.778,0.952,1.137,2.159,1.008,3.391c-0.134,1.227-0.729,2.329-1.689,3.107c-3.362,2.722-16.789,10.563-22.609,12.362
		C114.499,62.505,124.961,51.001,128.319,48.279L128.319,48.279z"/>
	<path fill="#FFFFFF" d="M98.596,68.973c8.587,0,10.535-32.457,10.535-32.78c0-5.813-4.722-10.539-10.535-10.539
		c-5.812,0-10.539,4.726-10.539,10.539C88.057,36.516,90.01,68.973,98.596,68.973L98.596,68.973z M98.596,31.571
		c2.548,0,4.622,2.074,4.622,4.622c0,4.204-2.394,19.62-4.622,25.307c-2.231-5.687-4.622-21.108-4.622-25.307
		C93.975,33.645,96.049,31.571,98.596,31.571L98.596,31.571z"/>
	<path fill="#FFFFFF" d="M89.783,79.958c-0.831-3.61-5.65-4.853-17.182-4.513c-7.263,0.227-14.874,1.098-17.13,1.617
		c-5.663,1.308-9.207,6.978-7.898,12.641c0.631,2.743,2.293,5.076,4.683,6.57c1.696,1.058,3.613,1.604,5.561,1.604
		c0.797,0,1.6-0.093,2.393-0.276c2.26-0.523,9.483-3.078,16.11-6.056C86.842,86.819,90.613,83.571,89.783,79.958L89.783,79.958z
		 M58.881,91.834c-1.207,0.279-2.446,0.068-3.491-0.58c-1.049-0.656-1.778-1.677-2.053-2.88c-0.575-2.483,0.98-4.974,3.462-5.545
		c3.046-0.705,12.443-1.515,19.544-1.515c2.443,0,4.613,0.093,6.16,0.325C77.461,85.09,62.976,90.89,58.881,91.834L58.881,91.834z"
		/>
	<path fill="#FFFFFF" d="M94.776,86.187v-0.003c-7.724-3.752-23.699,24.553-23.845,24.845c-2.544,5.226-0.368,11.544,4.853,14.092
		c1.487,0.722,3.054,1.066,4.602,1.066c3.904,0,7.667-2.18,9.494-5.918C90.021,119.972,102.489,89.946,94.776,86.187L94.776,86.187z
		 M84.562,117.676c-1.118,2.288-3.893,3.24-6.181,2.126c-2.293-1.118-3.245-3.888-2.127-6.181
		c1.839-3.783,10.766-16.615,15.262-20.738C91.066,98.971,86.457,113.792,84.562,117.676L84.562,117.676z"/>
	<path fill="#FFFFFF" d="M144.934,96.273c2.389-1.494,4.054-3.827,4.686-6.57c1.304-5.663-2.24-11.334-7.898-12.641
		c-2.256-0.518-9.867-1.39-17.13-1.617c-11.56-0.348-16.351,0.903-17.182,4.513c-0.835,3.613,2.941,6.861,13.463,11.588
		c6.627,2.978,13.849,5.533,16.105,6.056c0.793,0.183,1.6,0.276,2.397,0.276C141.325,97.877,143.241,97.331,144.934,96.273
		L144.934,96.273z M138.307,91.834c-4.091-0.944-18.575-6.744-23.618-10.195c6.047-0.892,21.605,0.243,25.704,1.19
		c2.482,0.571,4.038,3.062,3.462,5.545c-0.279,1.203-1.008,2.223-2.053,2.88C140.753,91.902,139.51,92.113,138.307,91.834
		L138.307,91.834z"/>
	<path fill="#FFFFFF" d="M59.327,60.062c0.219,0.174,19.37,13.86,28.422,13.86c1.596,0,2.876-0.425,3.686-1.422
		c2.333-2.884,0.364-7.457-7.02-16.319C79.766,50.6,74.395,45.14,72.593,43.677c-4.517-3.649-11.164-2.952-14.825,1.56
		C54.11,49.754,54.81,56.4,59.327,60.062L59.327,60.062z M62.365,48.964c0.915-1.13,2.251-1.713,3.6-1.713
		c1.021,0,2.05,0.336,2.904,1.029c3.362,2.718,13.824,14.226,16.789,19.544c-5.816-1.799-19.247-9.64-22.613-12.362
		c-0.956-0.778-1.555-1.88-1.685-3.107C61.231,51.122,61.592,49.92,62.365,48.964L62.365,48.964z"/>
	<path fill="#FFFFFF" d="M102.416,86.184v0.003c-7.713,3.759,4.755,33.785,4.896,34.081c1.827,3.738,5.59,5.918,9.495,5.918
		c1.547,0,3.118-0.344,4.601-1.066c5.217-2.548,7.396-8.866,4.853-14.092C126.115,110.737,110.153,82.441,102.416,86.184
		L102.416,86.184z M118.812,119.799c-2.284,1.122-5.063,0.166-6.181-2.123c-1.895-3.884-6.505-18.705-6.955-24.794
		c4.496,4.124,13.423,16.956,15.262,20.738C122.057,115.913,121.105,118.684,118.812,119.799L118.812,119.799z"/>
	<path fill="#FFFFFF" d="M162.193,77.418c0-35.069-28.528-63.596-63.596-63.596S35,42.349,35,77.418
		c0,33.57,26.161,61.078,59.161,63.37v26.846H70.494c-1.632,0-2.956,1.325-2.956,2.961v11.831c0,1.632,1.324,2.957,2.956,2.957
		h50.288c1.636,0,2.956-1.325,2.956-2.957v-11.831c0-1.636-1.32-2.961-2.956-2.961h-20.706v-26.692
		C134.455,140.144,162.193,111.985,162.193,77.418L162.193,77.418z M117.824,173.552v5.914H73.455v-5.914H117.824z M98.596,135.096
		c-31.804,0-57.683-25.874-57.683-57.679c0-31.803,25.878-57.679,57.683-57.679s57.679,25.875,57.679,57.679
		C156.275,109.222,130.401,135.096,98.596,135.096L98.596,135.096z"/>
	<path fill="#FFFFFF" d="M103.501,78.896c0,3.269-2.648,5.918-5.918,5.918c-3.264,0-5.914-2.648-5.914-5.918
		c0-3.268,2.649-5.914,5.914-5.914C100.853,72.983,103.501,75.628,103.501,78.896L103.501,78.896z"/>
</g>
</svg>
