<?xml version="1.0" encoding="utf-8"?>
<!-- Generator: Adobe Illustrator 17.0.0, SVG Export Plug-In . SVG Version: 6.00 Build 0)  -->
<!DOCTYPE svg PUBLIC "-//W3C//DTD SVG 1.1//EN" "http://www.w3.org/Graphics/SVG/1.1/DTD/svg11.dtd">
<svg version="1.1" id="Шар_1" xmlns="http://www.w3.org/2000/svg" xmlns:xlink="http://www.w3.org/1999/xlink" x="0px" y="0px"
	 width="200px" height="200px" viewBox="0 0 200 200" enable-background="new 0 0 200 200" xml:space="preserve">
<g>
	<path fill="#FFFFFF" d="M169.176,40.881H32.277C24.406,40.881,18,47.291,18,55.174v39.878c0,7.883,6.406,14.293,14.277,14.293
		h136.899c7.871,0,14.277-6.41,14.277-14.293V55.174C183.453,47.291,177.047,40.881,169.176,40.881L169.176,40.881z M177.746,95.052
		c0,4.735-3.844,8.586-8.57,8.586H32.277c-4.726,0-8.57-3.851-8.57-8.586V55.174c0-4.735,3.844-8.586,8.57-8.586h136.899
		c4.726,0,8.57,3.851,8.57,8.586V95.052z"/>
	<path fill="#FFFFFF" d="M148.387,133.002c-1.117-1.114-2.922-1.114-4.035,0l-4.872,4.871h-2.195
		c-0.859-2.418-2.762-4.321-5.18-5.18v-2.199l4.872-4.867c1.113-1.117,1.113-2.922,0-4.035c-1.114-1.114-2.918-1.114-4.036,0
		l-3.687,3.687l-3.688-3.687c-1.113-1.114-2.921-1.114-4.035,0c-1.113,1.113-1.113,2.918,0,4.031l4.871,4.871v2.195
		c-2.418,0.863-4.32,2.766-5.179,5.18h-2.196l-4.871-4.867c-1.113-1.117-2.918-1.117-4.035,0c-1.113,1.113-1.113,2.918,0,4.031
		l3.688,3.687l-3.688,3.692c-1.113,1.113-1.113,2.918,0,4.031c0.559,0.559,1.289,0.836,2.016,0.836c0.73,0,1.461-0.277,2.019-0.836
		l4.867-4.867h2.2c0.863,2.414,2.761,4.316,5.179,5.176v2.199l-4.871,4.871c-1.113,1.113-1.113,2.918,0,4.031
		c1.114,1.117,2.922,1.117,4.035,0l3.688-3.687l3.687,3.687c0.559,0.559,1.289,0.836,2.02,0.836c0.727,0,1.457-0.277,2.016-0.836
		c1.113-1.113,1.113-2.918,0-4.035l-4.872-4.867v-2.199c2.418-0.86,4.321-2.762,5.18-5.176h2.195l4.872,4.867
		c0.558,0.559,1.289,0.836,2.015,0.836c0.731,0,1.461-0.277,2.02-0.836c1.113-1.113,1.113-2.918,0-4.031l-3.688-3.692l3.688-3.687
		C149.5,135.92,149.5,134.115,148.387,133.002L148.387,133.002z M129.254,143.576c-1.574,0-2.852-1.277-2.852-2.852
		c0-1.574,1.278-2.855,2.852-2.855c1.574,0,2.851,1.281,2.851,2.855C132.105,142.299,130.824,143.576,129.254,143.576
		L129.254,143.576z"/>
	<path fill="#FFFFFF" d="M88.48,133.002c-1.113-1.114-2.918-1.114-4.035,0l-4.867,4.871h-2.199c-0.859-2.418-2.762-4.321-5.18-5.18
		v-2.199l4.871-4.867c1.114-1.117,1.114-2.922,0-4.035c-1.113-1.114-2.918-1.114-4.035,0l-3.687,3.687l-3.688-3.687
		c-1.113-1.114-2.918-1.114-4.035,0c-1.113,1.113-1.113,2.918,0,4.031l4.871,4.871v2.195c-2.418,0.863-4.32,2.766-5.18,5.18h-2.195
		l-4.871-4.867c-1.113-1.117-2.918-1.117-4.031,0c-1.117,1.113-1.117,2.918,0,4.031l3.687,3.687l-3.691,3.692
		c-1.113,1.113-1.113,2.918,0,4.031c0.558,0.559,1.289,0.836,2.019,0.836c0.727,0,1.457-0.277,2.016-0.836l4.871-4.867h2.195
		c0.864,2.414,2.762,4.316,5.18,5.176v2.199l-4.871,4.871c-1.113,1.113-1.113,2.918,0,4.031c1.117,1.117,2.922,1.117,4.035,0
		l3.688-3.687l3.687,3.687c0.559,0.559,1.289,0.836,2.02,0.836c0.726,0,1.457-0.277,2.015-0.836c1.114-1.113,1.114-2.918,0-4.035
		l-4.871-4.867v-2.199c2.418-0.86,4.321-2.762,5.18-5.176h2.199l4.867,4.867c0.559,0.559,1.289,0.836,2.02,0.836
		c0.726,0,1.457-0.277,2.015-0.836c1.114-1.113,1.114-2.918,0-4.031l-3.687-3.692l3.687-3.687
		C89.594,135.92,89.594,134.115,88.48,133.002L88.48,133.002z M69.348,143.576c-1.575,0-2.852-1.277-2.852-2.852
		c0-1.574,1.277-2.855,2.852-2.855c1.574,0,2.851,1.281,2.851,2.855C72.199,142.299,70.922,143.576,69.348,143.576L69.348,143.576z"
		/>
	<rect x="46.527" y="89.377" fill="#FFFFFF" width="105.586" height="5.703"/>
	<rect x="35.117" y="80.818" fill="#FFFFFF" width="131.219" height="5.707"/>
</g>
</svg>
