<?xml version="1.0" encoding="utf-8"?>
<!-- Generator: Adobe Illustrator 17.0.0, SVG Export Plug-In . SVG Version: 6.00 Build 0)  -->
<!DOCTYPE svg PUBLIC "-//W3C//DTD SVG 1.1//EN" "http://www.w3.org/Graphics/SVG/1.1/DTD/svg11.dtd">
<svg version="1.1" id="Шар_1" xmlns="http://www.w3.org/2000/svg" xmlns:xlink="http://www.w3.org/1999/xlink" x="0px" y="0px"
	 width="566.93px" height="566.93px" viewBox="0 0 566.93 566.93" enable-background="new 0 0 566.93 566.93" xml:space="preserve">
<path fill="#222C6B" d="M381.16,268.27h-3.732c-3.866,0-6.999,3.133-6.999,6.998c0,3.866,3.133,6.999,6.999,6.999
	c4.374,0,7.932,3.559,7.932,7.933s-3.558,7.932-7.932,7.932h-7.466c-3.865,0-6.998,3.134-6.998,6.999s3.133,6.999,6.998,6.999
	c4.374,0,7.933,3.558,7.933,7.932c0,4.374-3.559,7.933-7.933,7.933h-7.465c-3.865,0-6.998,3.133-6.998,6.998
	c0,3.866,3.133,6.999,6.998,6.999c4.374,0,7.933,3.559,7.933,7.933c0,4.374-3.559,7.932-7.933,7.932H250.008V290.2
	c0-3.866-3.133-6.999-6.999-6.999c-3.865,0-6.998,3.133-6.998,6.999v74.656c0,0.258-0.21,0.466-0.467,0.466h-44.793
	c-0.258,0-0.467-0.209-0.467-0.466V245.406c0-0.258,0.21-0.467,0.467-0.467h44.793c0.258,0,0.467,0.21,0.467,0.467v14.932
	c0,3.866,3.133,6.999,6.998,6.999c3.866,0,6.999-3.133,6.999-6.999v-14.932c0-0.34-0.028-0.672-0.052-1.006
	c5.249-4.062,9.446-8.169,12.183-11.084c2.59-2.759,5.423-4.651,8.418-5.622c16.474-5.347,27.561-13.959,33.96-20.243
	c8.02-7.874,12.808-16.083,12.808-21.959c0-3.105,1.211-6.014,3.409-8.194c2.227-2.206,5.175-3.372,8.361-3.376
	c3.923,0.036,6.522,2.044,8.012,3.722c2.555,2.877,3.813,7.012,3.367,11.062c-1.529,13.907-12.651,31.097-28.334,43.793
	c-2.304,1.866-3.183,4.981-2.194,7.775c0.989,2.795,3.633,4.663,6.598,4.663h64.615c6.433,0,11.665,5.233,11.665,11.666
	C392.825,263.036,387.592,268.27,381.16,268.27L381.16,268.27z M406.823,256.605c0-14.151-11.512-25.663-25.663-25.663h-47.165
	c11.459-12.88,18.948-27.546,20.395-40.704c0.883-8.036-1.599-16.014-6.814-21.887c-4.766-5.368-11.283-8.36-18.352-8.426
	c-0.082-0.001-0.164-0.001-0.245-0.001c-6.837,0-13.254,2.634-18.097,7.431c-4.844,4.799-7.524,11.193-7.555,18.015
	c-0.249,1.494-2.877,6.644-9.307,12.759c-5.264,5.007-14.358,11.892-27.785,16.25c-5.265,1.71-10.076,4.857-14.3,9.355
	c-2.216,2.359-5.535,5.617-9.645,8.888c-2.016-1.069-4.31-1.68-6.747-1.68H190.75c-7.976,0-14.465,6.488-14.465,14.465v119.449
	c0,7.976,6.489,14.465,14.465,14.465h44.793c5.438,0,10.18-3.019,12.65-7.465h114.303c12.093,0,21.93-9.838,21.93-21.93
	c0-4.066-1.111-7.877-3.048-11.144c6.301-3.857,10.513-10.805,10.513-18.718c0-4.066-1.111-7.876-3.048-11.144
	c6.302-3.857,10.513-10.805,10.513-18.718c0-4.577-1.409-8.83-3.815-12.35C402.345,273.231,406.823,265.431,406.823,256.605
	L406.823,256.605z"/>
<path fill="#F67426" d="M213.147,334.385c-3.865,0-7.036,3.172-7.036,7.037c0,3.865,3.171,7.036,7.036,7.036
	c3.865,0,7.036-3.171,7.036-7.036C220.183,337.557,217.012,334.385,213.147,334.385L213.147,334.385z"/>
<path fill="#222C6B" d="M484.799,284.209l11.548,30.556l-20.424,25.492c-1.066,1.33-1.61,3.003-1.53,4.706l1.54,32.629
	l-27.302,17.933c-1.424,0.935-2.458,2.359-2.909,4.003l-8.618,31.508l-31.508,8.619c-1.644,0.45-3.067,1.483-4.003,2.908
	l-17.933,27.302l-32.629-1.54c-1.703-0.079-3.376,0.464-4.706,1.53l-25.492,20.424l-30.556-11.548
	c-0.797-0.301-1.636-0.451-2.474-0.451c-0.837,0-1.676,0.151-2.473,0.451l-30.556,11.548l-25.492-20.424
	c-1.33-1.066-3.006-1.608-4.706-1.53l-32.629,1.54l-17.933-27.302c-0.935-1.424-2.359-2.459-4.003-2.908l-31.508-8.619
	l-8.618-31.508c-0.45-1.644-1.484-3.067-2.909-4.003l-27.302-17.933l1.54-32.629c0.08-1.702-0.464-3.376-1.53-4.706l-20.424-25.492
	l11.547-30.556c0.603-1.593,0.603-3.353,0-4.948l-11.547-30.556l20.424-25.492c1.066-1.33,1.61-3.002,1.53-4.706l-1.54-32.629
	l27.302-17.933c1.424-0.935,2.459-2.359,2.909-4.003l8.618-31.508l31.508-8.618c1.644-0.45,3.067-1.484,4.003-2.909l17.933-27.302
	l32.629,1.54c1.7,0.079,3.376-0.464,4.706-1.529l25.492-20.424l30.556,11.547c1.594,0.603,3.353,0.603,4.948,0l30.556-11.547
	l25.492,20.424c1.33,1.067,3.003,1.61,4.706,1.529l32.629-1.54l17.933,27.302c0.935,1.424,2.359,2.459,4.003,2.909l31.508,8.618
	l8.618,31.508c0.45,1.644,1.484,3.067,2.909,4.003l27.302,17.933l-1.54,32.629c-0.08,1.703,0.464,3.376,1.53,4.706l20.424,25.492
	L484.8,279.26C484.197,280.855,484.197,282.615,484.799,284.209L484.799,284.209z M498.828,281.735l12.023-31.817
	c0.876-2.314,0.464-4.919-1.085-6.851l-21.267-26.543l1.604-33.976c0.116-2.471-1.081-4.822-3.149-6.179l-28.427-18.673
	l-8.974-32.808c-0.653-2.387-2.518-4.252-4.904-4.904l-32.808-8.974l-18.673-28.428c-1.359-2.068-3.709-3.261-6.18-3.149
	l-33.975,1.603L326.469,59.77c-1.931-1.547-4.536-1.96-6.851-1.085l-31.817,12.023l-31.815-12.022
	c-2.316-0.875-4.921-0.463-6.851,1.085l-26.544,21.267l-33.975-1.603c-2.483-0.117-4.822,1.081-6.179,3.149l-18.674,28.428
	l-32.807,8.974c-2.387,0.653-4.252,2.518-4.904,4.904l-8.974,32.808L88.651,176.37c-2.068,1.359-3.265,3.709-3.149,6.179
	l1.603,33.976l-21.267,26.543c-1.547,1.931-1.96,4.535-1.085,6.851l12.023,31.816L64.754,313.55
	c-0.875,2.314-0.463,4.919,1.085,6.851l21.267,26.544l-1.603,33.975c-0.117,2.471,1.081,4.822,3.149,6.179l28.428,18.673
	l8.974,32.808c0.653,2.388,2.518,4.252,4.904,4.904l32.807,8.974l18.674,28.428c1.358,2.067,3.713,3.257,6.179,3.148l33.975-1.603
	l26.544,21.267c1.93,1.548,4.536,1.96,6.851,1.085l31.816-12.024l31.817,12.024c0.803,0.303,1.64,0.451,2.473,0.451
	c1.567,0,3.116-0.526,4.377-1.537l26.543-21.267l33.975,1.603c2.479,0.11,4.821-1.081,6.18-3.148l18.673-28.428l32.808-8.974
	c2.387-0.653,4.252-2.517,4.904-4.904l8.974-32.808l28.427-18.673c2.068-1.358,3.265-3.709,3.149-6.179l-1.604-33.975l21.267-26.544
	c1.547-1.93,1.96-4.536,1.085-6.851L498.828,281.735L498.828,281.735z"/>
<rect x="64.302" y="58.233" fill="none" width="481.767" height="481.767"/>
<path fill="#222C6B" d="M404.044,165.174c1.682,1.682,3.351,3.424,4.958,5.174c1.379,1.503,3.266,2.266,5.157,2.266
	c1.691,0,3.387-0.609,4.732-1.843c2.847-2.614,3.036-7.042,0.423-9.889c-1.742-1.896-3.548-3.782-5.372-5.605
	c-1.823-1.822-3.709-3.63-5.605-5.371c-2.847-2.614-7.274-2.425-9.889,0.423c-2.614,2.847-2.425,7.275,0.423,9.889
	C400.62,161.823,402.36,163.49,404.044,165.174L404.044,165.174z"/>
<path fill="#F67426" d="M171.11,165.174c26.663-26.665,61.962-43.483,99.393-47.361c36.908-3.824,74.36,4.984,105.458,24.797
	c3.261,2.077,7.586,1.118,9.664-2.142c2.077-3.26,1.117-7.586-2.142-9.663c-33.752-21.504-74.389-31.06-114.421-26.915
	c-40.619,4.208-78.92,22.456-107.849,51.386c-31.838,31.838-50.374,74.132-52.196,119.091
	c-1.809,44.695,12.994,88.089,41.685,122.187c1.384,1.645,3.364,2.493,5.36,2.493c1.591,0,3.189-0.54,4.502-1.643
	c2.957-2.489,3.339-6.904,0.849-9.861c-26.437-31.42-40.077-71.411-38.41-112.608C124.681,233.498,141.765,194.518,171.11,165.174
	L171.11,165.174z"/>
<path fill="#F67426" d="M428.749,183.594c-3.26,2.077-4.219,6.403-2.142,9.663c19.813,31.1,28.62,68.552,24.797,105.458
	c-3.877,37.431-20.697,72.73-47.36,99.394c-29.345,29.343-68.324,46.428-109.76,48.106c-41.19,1.674-81.189-11.972-112.608-38.408
	c-2.958-2.489-7.373-2.108-9.861,0.849c-2.489,2.958-2.108,7.372,0.849,9.861c32.234,27.121,72.771,41.835,114.864,41.833
	c2.435,0,4.879-0.049,7.324-0.148c44.96-1.821,87.253-20.357,119.09-52.195c28.929-28.929,47.179-67.231,51.386-107.849
	c4.147-40.035-5.412-80.67-26.915-114.421C436.336,182.476,432.008,181.516,428.749,183.594L428.749,183.594z"/>
</svg>
