<?xml version="1.0" encoding="utf-8"?>
<!-- Generator: Adobe Illustrator 17.0.0, SVG Export Plug-In . SVG Version: 6.00 Build 0)  -->
<!DOCTYPE svg PUBLIC "-//W3C//DTD SVG 1.1//EN" "http://www.w3.org/Graphics/SVG/1.1/DTD/svg11.dtd">
<svg version="1.1" id="Шар_1" xmlns="http://www.w3.org/2000/svg" xmlns:xlink="http://www.w3.org/1999/xlink" x="0px" y="0px"
	 width="566.93px" height="566.93px" viewBox="0 0 566.93 566.93" enable-background="new 0 0 566.93 566.93" xml:space="preserve">
<path fill="#222C6B" d="M436.963,420.431c0,24.902-20.27,45.205-45.205,45.205c-24.902,0-45.164-20.302-45.164-45.205
	c0-3.559-2.905-6.464-6.464-6.464H127.075V78.306h309.888v38.701h12.887V71.843c0-3.567-2.864-6.464-6.423-6.464H120.652
	c-3.599,0-6.464,2.897-6.464,6.464v342.125H81.911c-3.567,0-6.464,2.905-6.464,6.464c0,32.027,26.064,58.091,58.091,58.091h258.22
	c32.06,0,58.091-26.064,58.091-58.091V246.117h-12.887V420.431z M133.539,465.636c-22.724,0-41.573-16.865-44.729-38.741h245.204
	c1.767,15.598,9.74,29.34,21.368,38.741H133.539z M133.539,465.636"/>
<path fill="#F67426" d="M314.317,136.398c0-17.809-14.501-32.277-32.277-32.277c-17.809,0-32.277,14.468-32.277,32.277
	c0,17.777,14.468,32.277,32.277,32.277C299.816,168.675,314.317,154.174,314.317,136.398L314.317,136.398z M262.648,136.398
	c0-10.684,8.699-19.391,19.391-19.391c10.652,0,19.35,8.707,19.35,19.391s-8.699,19.35-19.35,19.35
	C271.347,155.748,262.648,147.081,262.648,136.398L262.648,136.398z M262.648,136.398"/>
<rect x="146.465" y="110.584" fill="#222C6B" width="83.905" height="12.895"/>
<rect x="146.465" y="136.398" fill="#222C6B" width="83.905" height="12.895"/>
<rect x="146.465" y="162.212" fill="#222C6B" width="83.905" height="12.927"/>
<path fill="#F67426" d="M454.425,131.822c-2.526-2.517-6.593-2.517-9.111,0L290.359,286.754c-1.202,1.227-1.896,2.865-1.896,4.567
	v36.062l-22.029,22.029H152.929v12.927h141.997v-12.927h-10.24l12.919-12.887h36.062c1.703,0,3.341-0.694,4.567-1.897
	l116.191-116.215C478.319,194.553,478.319,155.683,454.425,131.822L454.425,131.822z M445.315,209.304L330.988,323.599h-20.456
	L441.53,192.601l-9.143-9.143L301.389,314.456V294l148.178-148.178C464.003,164.762,462.591,191.996,445.315,209.304
	L445.315,209.304z M445.315,209.304"/>
<rect x="178.743" y="200.953" fill="#222C6B" width="161.387" height="12.895"/>
<rect x="152.929" y="226.766" fill="#222C6B" width="161.387" height="12.927"/>
<rect x="152.929" y="252.58" fill="#222C6B" width="58.091" height="12.927"/>
<rect x="223.907" y="252.58" fill="#222C6B" width="71.018" height="12.927"/>
<rect x="152.929" y="278.394" fill="#222C6B" width="122.646" height="12.927"/>
<rect x="307.853" y="375.227" fill="#222C6B" width="96.832" height="12.927"/>
</svg>
