<?xml version="1.0" encoding="utf-8"?>
<!-- Generator: Adobe Illustrator 17.0.0, SVG Export Plug-In . SVG Version: 6.00 Build 0)  -->
<!DOCTYPE svg PUBLIC "-//W3C//DTD SVG 1.1//EN" "http://www.w3.org/Graphics/SVG/1.1/DTD/svg11.dtd">
<svg version="1.1" id="Шар_1" xmlns="http://www.w3.org/2000/svg" xmlns:xlink="http://www.w3.org/1999/xlink" x="0px" y="0px"
	 width="566.93px" height="566.93px" viewBox="0 0 566.93 566.93" enable-background="new 0 0 566.93 566.93" xml:space="preserve">
<g>
	<path fill="#222C6B" d="M464.705,245.449l-79.622-79.622l34.565-34.563l79.622,79.622L464.705,245.449L464.705,245.449z
		 M422.928,268.945c-5.149,5.15-8.531,11.546-9.778,18.496c-3.703,20.619-13.493,39.353-28.308,54.177l-5.704,5.703l-46.946-46.946
		c1.02,0.075,2.044,0.125,3.076,0.125c4.754,0,9.618-0.833,14.46-2.814c3.793-1.551,5.61-5.885,4.059-9.678
		c-1.552-3.792-5.882-5.61-9.679-4.058c-19.1,7.815-41.998-13.723-44.546-16.204c-0.043-0.042-0.085-0.083-0.129-0.123l-0.263-0.263
		c-0.001-0.001-0.002-0.001-0.004-0.002l-0.229-0.229c-0.002-0.001-0.004-0.003-0.005-0.004l-6.247-6.251l7.083-7.085
		c2.9-2.899,2.9-7.597,0.001-10.495c-2.898-2.897-7.597-2.899-10.494,0l-12.315,12.315c-0.005,0.005-0.01,0.009-0.015,0.014
		c-0.005,0.005-0.008,0.01-0.014,0.015l-28.314,28.314c-5.819,5.818-15.284,5.816-21.102,0c-2.818-2.818-4.37-6.565-4.37-10.551
		c0-3.986,1.552-7.733,4.371-10.551l48.871-48.873c2.72-2.718,5.741-5.109,8.99-7.112c7.717-4.77,16.629-7.291,25.774-7.291
		c6.982,0,14.011,1.516,20.331,4.384c14.377,6.523,31.464,3.484,42.517-7.567l10.33-10.328l60.739,60.738L422.928,268.945
		L422.928,268.945z M376.184,379.651c-1.908,1.909-4.444,2.961-7.141,2.961s-5.234-1.052-7.145-2.965l-71.993-71.977
		c-2.9-2.899-7.598-2.898-10.495,0.002c-2.897,2.898-2.896,7.597,0.002,10.495l77.548,77.54c1.909,1.908,2.958,4.444,2.958,7.144
		c0,2.703-1.051,5.244-2.956,7.149c-3.945,3.941-10.359,3.942-14.299,0.003l-13.083-13.083c-0.072-0.075-0.143-0.152-0.219-0.225
		c-0.022-0.022-0.046-0.041-0.069-0.063l-60.138-60.138c-2.899-2.898-7.597-2.898-10.495,0c-2.898,2.899-2.898,7.598,0,10.495
		l60.333,60.331c1.844,1.89,2.86,4.391,2.86,7.045c0,2.7-1.052,5.236-2.959,7.144c-3.938,3.94-10.348,3.94-14.287,0l-65.418-65.418
		c-2.899-2.899-7.597-2.899-10.495,0c-2.898,2.898-2.898,7.597,0,10.494l48.492,48.493c0.014,0.014,0.025,0.029,0.039,0.042
		c1.907,1.903,2.955,4.436,2.955,7.132c0,2.698-1.051,5.235-2.966,7.151c-1.905,1.909-4.441,2.961-7.142,2.961
		c-0.652,0-1.29-0.067-1.915-0.185c1.201-8.089-1.303-16.626-7.516-22.839c-5.045-5.045-11.752-7.823-18.886-7.823
		c-0.199,0-0.397,0.01-0.595,0.015c0.152-7.032-2.441-14.114-7.796-19.469c-5.045-5.044-11.751-7.823-18.886-7.823
		c-0.447,0-0.891,0.011-1.333,0.033c0.356-7.273-2.235-14.664-7.777-20.207c-6.746-6.746-16.23-9.115-24.906-7.121l-5.322-5.322
		c-14.647-14.654-24.392-33.156-28.185-53.506c-1.389-7.454-4.993-14.263-10.421-19.693l-13.082-13.081l74.425-74.425l18.548,18.548
		c7.129,7.129,16.836,10.945,26.778,10.945c4.453,0,8.955-0.766,13.291-2.342c2.104-0.765,4.279-1.314,6.483-1.663l-45.949,45.95
		c-5.622,5.621-8.718,13.095-8.718,21.046c0,7.949,3.096,15.423,8.717,21.045c5.803,5.802,13.422,8.703,21.045,8.702
		c7.621,0,15.244-2.902,21.047-8.702l23.078-23.079l6.246,6.251c0.003,0.002,0.004,0.003,0.005,0.005l0.26,0.26l0.249,0.25
		c0.001,0.001,0.004,0.003,0.005,0.004l0.005,0.005c0.072,0.072,0.142,0.138,0.212,0.205l87.013,87.013
		c1.908,1.908,2.958,4.444,2.958,7.144C379.146,375.203,378.096,377.74,376.184,379.651L376.184,379.651z M250.141,436.617
		c-2.242,2.242-5.221,3.477-8.39,3.477c-3.17,0-6.15-1.235-8.391-3.477c-4.627-4.626-4.627-12.155,0-16.782
		c2.314-2.313,5.352-3.47,8.391-3.47c3.037,0,6.078,1.157,8.39,3.47C254.769,424.462,254.769,431.991,250.141,436.617
		L250.141,436.617z M214.473,412.816c-3.169,0-6.149-1.235-8.389-3.476c-4.628-4.626-4.628-12.156,0-16.783
		c2.313-2.313,5.351-3.47,8.391-3.47c3.037,0,6.077,1.157,8.389,3.47c4.628,4.627,4.628,12.156,0,16.783
		C220.624,411.583,217.644,412.816,214.473,412.816L214.473,412.816z M178.086,381.345c-2.241-2.242-3.476-5.222-3.476-8.392
		c0-3.169,1.235-6.149,3.478-8.391c2.313-2.313,5.351-3.47,8.389-3.47c3.039,0,6.079,1.157,8.391,3.47
		c4.627,4.627,4.627,12.156,0.001,16.783C190.243,385.97,182.715,385.972,178.086,381.345L178.086,381.345z M70.453,218.219
		l89.815-89.816l34.565,34.563l-89.816,89.816L70.453,218.219L70.453,218.219z M515.012,205.638l-90.115-90.117
		c-2.899-2.898-7.597-2.898-10.495,0l-45.059,45.059c-1.391,1.391-2.173,3.279-2.173,5.247c0,1.968,0.781,3.856,2.173,5.247
		l4.496,4.495l-10.329,10.327c-6.706,6.703-17.11,8.532-25.89,4.548c-8.231-3.736-17.383-5.71-26.465-5.71
		c-10.784,0-21.323,2.707-30.686,7.835c-3.906-0.962-7.913-1.455-11.96-1.455c-5.853,0-11.603,1.01-17.087,3.004
		c-8.759,3.182-18.148,1.21-24.506-5.147l-18.549-18.549l2.209-2.209c1.391-1.391,2.173-3.279,2.173-5.247
		c0-1.968-0.781-3.856-2.173-5.247l-45.059-45.059c-2.899-2.898-7.597-2.898-10.495,0L54.711,212.971
		c-2.898,2.899-2.898,7.598,0,10.494l45.058,45.059c1.392,1.392,3.279,2.174,5.248,2.174c1.969,0,3.855-0.781,5.248-2.174
		l2.687-2.688l13.081,13.081c3.301,3.302,5.489,7.423,6.327,11.917c4.344,23.308,15.506,44.497,32.28,61.281l2.464,2.464
		c-4.732,4.983-7.335,11.476-7.335,18.373c0,7.134,2.778,13.841,7.823,18.885c5.207,5.208,12.045,7.81,18.885,7.81
		c0.446,0,0.89-0.012,1.335-0.034c-0.361,7.277,2.231,14.674,7.776,20.221c5.045,5.045,11.751,7.823,18.886,7.823
		c0.199,0,0.397-0.01,0.595-0.015c-0.152,7.032,2.442,14.114,7.796,19.469c5.046,5.046,11.752,7.823,18.887,7.823
		c7.134,0,13.841-2.779,18.886-7.823c0.425-0.425,0.825-0.864,1.216-1.309c2.627,0.915,5.406,1.403,8.215,1.403
		c6.673,0,12.942-2.601,17.643-7.316c2.502-2.501,4.401-5.443,5.637-8.648l0.76,0.76c4.863,4.863,11.251,7.296,17.639,7.296
		c6.388,0,12.776-2.432,17.639-7.296c2.585-2.585,4.527-5.637,5.757-8.964c4.354,3.166,9.507,4.751,14.665,4.751
		c6.388,0,12.78-2.43,17.647-7.292c4.711-4.711,7.306-10.978,7.306-17.647c0-2.015-0.241-3.99-0.702-5.9
		c4.753-0.966,9.12-3.299,12.624-6.807c4.711-4.711,7.306-10.975,7.306-17.639c0-5.251-1.617-10.249-4.604-14.439l5.953-5.954
		c16.97-16.977,28.18-38.432,32.421-62.048c0.711-3.953,2.669-7.627,5.666-10.623l22.142-22.142l3.892,3.892
		c1.45,1.449,3.349,2.174,5.248,2.174s3.799-0.724,5.248-2.174l45.059-45.058c1.391-1.391,2.173-3.28,2.173-5.247
		C517.188,208.915,516.403,207.03,515.012,205.638L515.012,205.638z"/>
	<rect x="52.537" y="110.486" fill="none" width="464.65" height="344.446"/>
	<path fill="#F67426" d="M108.41,205.674c6.052,0,10.958,4.906,10.958,10.957c0,6.051-4.906,10.957-10.958,10.957
		c-6.052,0-10.958-4.906-10.958-10.957C97.453,210.579,102.359,205.674,108.41,205.674L108.41,205.674z"/>
	<path fill="#222C6B" d="M472.181,209.139c4.099,0,7.422,3.322,7.422,7.421s-3.322,7.421-7.422,7.421
		c-4.098,0-7.421-3.322-7.421-7.421S468.083,209.139,472.181,209.139L472.181,209.139z"/>
	
		<line fill="none" stroke="#F67426" stroke-width="12" stroke-linejoin="round" stroke-miterlimit="10" x1="402.69" y1="149.129" x2="451.357" y2="198.013"/>
</g>
</svg>
