<?xml version="1.0" encoding="utf-8"?>
<!-- Generator: Adobe Illustrator 17.0.0, SVG Export Plug-In . SVG Version: 6.00 Build 0)  -->
<!DOCTYPE svg PUBLIC "-//W3C//DTD SVG 1.1//EN" "http://www.w3.org/Graphics/SVG/1.1/DTD/svg11.dtd">
<svg version="1.1" id="Шар_1" xmlns="http://www.w3.org/2000/svg" xmlns:xlink="http://www.w3.org/1999/xlink" x="0px" y="0px"
	 width="566.93px" height="566.93px" viewBox="0 0 566.93 566.93" enable-background="new 0 0 566.93 566.93" xml:space="preserve">
<path fill="#222C6B" d="M457.898,387.888L418.811,348.8c-2.364-2.364-6.196-2.364-8.559,0l-50.214,50.214
	c-2.364,2.364-2.364,6.196,0,8.558l39.086,39.087l-14.265,14.266l-46.213-46.213l4.111-45.208l7.58-7.581l22.825-22.825
	c0.001-0.001,0.002-0.002,0.004-0.004l7.576-7.576l45.209-4.11l46.212,46.212L457.898,387.888L457.898,387.888z M244.927,357.847
	l-7.374-7.374l-15.937-15.936c-0.013-0.014-0.025-0.029-0.038-0.042c-0.014-0.013-0.028-0.025-0.042-0.039l-15.938-15.938
	l-7.374-7.374l19.971-8.56l8.515,8.515l18.259,18.259l8.515,8.515L244.927,357.847L244.927,357.847z M156.723,443.107
	l-43.758-43.758l5.298-9.537l23.998,23.999l23.998,23.998L156.723,443.107L156.723,443.107z M187.624,317.663l5.136,5.135
	l-62.197,62.197l-5.136-5.136L187.624,317.663L187.624,317.663z M146.541,400.972l-7.418-7.418l62.197-62.196l7.418,7.417
	L146.541,400.972L146.541,400.972z M162.518,416.949l-7.418-7.418l62.196-62.197l7.419,7.418L162.518,416.949L162.518,416.949z
	 M176.212,430.643l-5.135-5.136l62.197-62.197l5.136,5.136L176.212,430.643L176.212,430.643z M208.664,235.412l-45.208,4.11
	l-46.212-46.212l14.266-14.265l39.087,39.086c2.364,2.364,6.196,2.364,8.559,0l50.214-50.214c2.364-2.363,2.364-6.196,0-8.558
	l-39.087-39.087l14.265-14.265l46.213,46.212l-4.11,45.209l-7.581,7.58l-22.825,22.825L208.664,235.412L208.664,235.412z
	 M380.571,138.412l45.396-20.635l12.328,12.328l-20.634,45.396l-33.746,33.746l-9.415-9.415l-18.259-18.259l-9.415-9.415
	L380.571,138.412L380.571,138.412z M361.66,204.112l-57.463,57.464l-9.701-9.7l57.464-57.464L361.66,204.112L361.66,204.112z
	 M239.55,306.821l23.563-23.564l9.701,9.701l-23.564,23.563L239.55,306.821L239.55,306.821z M346.058,349.086l-60.405-60.406l0,0
	l0,0l-18.26-18.26l-38.309-38.309l14.265-14.265l38.309,38.309l18.259,18.259h0.001l60.406,60.405L346.058,349.086L346.058,349.086z
	 M485.002,369.342l-52.496-52.496c-1.27-1.27-3.039-1.91-4.828-1.748l-50.213,4.565c-1.41,0.128-2.731,0.746-3.731,1.748
	l-4.851,4.85l-56.126-56.127l57.464-57.463l9.415,9.416c1.181,1.181,2.73,1.773,4.279,1.773s3.097-0.591,4.279-1.773l38.801-38.801
	c0.513-0.514,0.93-1.114,1.229-1.776l22.824-50.214c1.044-2.297,0.555-5-1.23-6.784l-18.259-18.26
	c-1.785-1.784-4.487-2.275-6.784-1.23l-50.214,22.825c-0.661,0.3-1.262,0.717-1.776,1.23l-38.797,38.802
	c-2.364,2.364-2.364,6.196,0,8.559l9.416,9.414l-57.464,57.464l-34.03-34.029l4.85-4.85c1.002-1.002,1.62-2.322,1.748-3.731
	l4.565-50.214c0.163-1.789-0.478-3.558-1.748-4.827l-52.497-52.496c-2.364-2.364-6.196-2.364-8.56,0l-22.823,22.824
	c-2.364,2.364-2.364,6.196,0,8.559l39.086,39.087l-41.654,41.655l-39.087-39.086c-2.364-2.364-6.196-2.364-8.559,0l-22.825,22.824
	c-2.364,2.364-2.364,6.196,0,8.558l52.496,52.496c1.14,1.14,2.681,1.773,4.279,1.773c0.182,0,0.366-0.008,0.549-0.025l50.214-4.565
	c1.41-0.128,2.73-0.746,3.731-1.748l4.85-4.85l34.03,34.029l-23.563,23.564l-7.133-7.133c-1.749-1.748-4.388-2.258-6.664-1.283
	l-31.844,13.647c-0.004,0.002-0.008,0.004-0.012,0.005l-0.098,0.042c-0.047,0.02-0.09,0.046-0.136,0.067
	c-0.124,0.056-0.247,0.114-0.368,0.18c-0.076,0.041-0.148,0.086-0.221,0.129c-0.094,0.057-0.188,0.114-0.281,0.176
	c-0.096,0.064-0.186,0.134-0.278,0.204c-0.064,0.049-0.129,0.096-0.193,0.148c-0.11,0.091-0.213,0.188-0.316,0.285
	c-0.034,0.033-0.07,0.06-0.103,0.094l-0.069,0.069c-0.006,0.006-0.013,0.013-0.02,0.019l-70.564,70.565
	c-0.002,0.001-0.002,0.003-0.004,0.005l-0.098,0.098c-0.037,0.037-0.069,0.078-0.105,0.116c-0.09,0.095-0.179,0.19-0.263,0.291
	c-0.063,0.076-0.12,0.154-0.179,0.232c-0.059,0.078-0.119,0.154-0.174,0.236c-0.074,0.109-0.14,0.22-0.207,0.332
	c-0.027,0.045-0.057,0.088-0.083,0.133l-0.068,0.123c-0.001,0.002-0.002,0.002-0.002,0.004l-11.343,20.416
	c-1.312,2.362-0.9,5.308,1.011,7.218l50.214,50.214c1.164,1.164,2.714,1.773,4.282,1.773c1.004,0,2.015-0.249,2.937-0.762
	l20.541-11.412c0.05-0.028,0.095-0.061,0.144-0.09c0.107-0.064,0.215-0.128,0.319-0.199c0.084-0.058,0.163-0.119,0.243-0.179
	c0.076-0.057,0.153-0.113,0.226-0.175c0.101-0.084,0.197-0.174,0.291-0.263c0.038-0.036,0.079-0.068,0.116-0.105l0.099-0.099
	c0.002-0.001,0.002-0.002,0.003-0.002l70.653-70.654c0.078-0.078,0.147-0.161,0.219-0.243c0.049-0.054,0.101-0.107,0.148-0.163
	c0.016-0.018,0.033-0.035,0.048-0.054c0.151-0.185,0.285-0.378,0.411-0.575c0.026-0.043,0.051-0.087,0.077-0.13
	c0.131-0.219,0.248-0.442,0.35-0.672c0.009-0.02,0.021-0.037,0.03-0.057l0.039-0.092c0.003-0.007,0.007-0.015,0.01-0.022
	l13.646-31.841c0.974-2.275,0.466-4.913-1.283-6.664l-7.132-7.132l23.563-23.564l56.127,56.127l-4.85,4.85
	c-1.001,1.002-1.619,2.322-1.748,3.731l-4.565,50.214c-0.163,1.789,0.478,3.557,1.748,4.827l52.496,52.496
	c1.181,1.182,2.73,1.773,4.279,1.773c1.549,0,3.097-0.59,4.279-1.773l22.824-22.824c2.364-2.364,2.364-6.196,0-8.559l-39.086-39.086
	l41.654-41.655l39.087,39.087c2.364,2.364,6.196,2.364,8.558,0l22.824-22.825C487.365,375.537,487.365,371.705,485.002,369.342
	L485.002,369.342z"/>
<rect x="99.404" y="91.395" fill="none" width="387.369" height="384.14"/>
<polyline fill="none" stroke="#F67426" stroke-width="12" stroke-linecap="round" stroke-linejoin="round" stroke-miterlimit="10" points="
	371.532,175.337 394.558,149.337 422.929,135.605 "/>
</svg>
