<?xml version="1.0" encoding="utf-8"?>
<!-- Generator: Adobe Illustrator 17.0.0, SVG Export Plug-In . SVG Version: 6.00 Build 0)  -->
<!DOCTYPE svg PUBLIC "-//W3C//DTD SVG 1.1//EN" "http://www.w3.org/Graphics/SVG/1.1/DTD/svg11.dtd">
<svg version="1.1" id="Шар_1" xmlns="http://www.w3.org/2000/svg" xmlns:xlink="http://www.w3.org/1999/xlink" x="0px" y="0px"
	 width="566.93px" height="566.93px" viewBox="0 0 566.93 566.93" enable-background="new 0 0 566.93 566.93" xml:space="preserve">
<g>
	<path fill="#F67426" d="M429.625,374.951c-18.82,0-34.133,15.313-34.133,34.133c0,18.82,15.313,34.133,34.133,34.133
		c18.82,0,34.133-15.313,34.133-34.133C463.758,390.264,448.445,374.951,429.625,374.951L429.625,374.951z M429.625,429.565
		c-11.293,0-20.48-9.188-20.48-20.481c0-11.293,9.187-20.48,20.48-20.48c11.293,0,20.481,9.187,20.481,20.48
		C450.106,420.377,440.918,429.565,429.625,429.565L429.625,429.565z M429.625,429.565"/>
	<path fill="#222C6B" d="M477.41,370.549V142.846c0-7.531-6.121-13.656-13.652-13.656h-68.266c-7.531,0-13.656,6.125-13.656,13.656
		v184.316c0,3.77,3.055,6.828,6.828,6.828h13.653c3.777,0,6.828-3.058,6.828-6.828c0-3.765-3.051-6.824-6.828-6.824h-6.825v-13.652
		h6.825c3.777,0,6.828-3.059,6.828-6.828c0-3.77-3.051-6.829-6.828-6.829h-6.825v-13.652h20.481c3.773,0,6.824-3.058,6.824-6.824
		c0-3.77-3.051-6.828-6.824-6.828h-20.481v-13.656h6.825c3.777,0,6.828-3.055,6.828-6.825c0-3.769-3.051-6.828-6.828-6.828h-6.825
		v-13.652h6.825c3.777,0,6.828-3.059,6.828-6.828c0-3.766-3.051-6.825-6.828-6.825h-6.825v-13.652h6.825
		c3.777,0,6.828-3.058,6.828-6.828s-3.051-6.828-6.828-6.828h-6.825v-13.652h20.481c3.773,0,6.824-3.059,6.824-6.825
		c0-3.769-3.051-6.828-6.824-6.828h-20.481v-13.652h68.266v215.187c-9.777-6.558-21.504-10.39-34.133-10.39
		c-33.883,0-61.441,27.566-61.441,61.441c0,12.621,3.836,24.363,10.383,34.133H190.692v-68.266h13.652v20.481
		c0,3.765,3.059,6.824,6.828,6.824c3.766,0,6.824-3.059,6.824-6.824v-20.481h13.657v6.828c0,3.766,3.058,6.825,6.824,6.825
		c3.769,0,6.828-3.059,6.828-6.825v-6.828h13.652v6.828c0,3.766,3.059,6.825,6.828,6.825c3.766,0,6.825-3.059,6.825-6.825v-6.828
		h13.656v6.828c0,3.766,3.058,6.825,6.824,6.825c3.777,0,6.828-3.059,6.828-6.825v-6.828h13.652v20.481
		c0,3.765,3.051,6.824,6.829,6.824c3.773,0,6.824-3.059,6.824-6.824v-20.481h13.656v6.828c0,3.766,3.051,6.825,6.824,6.825
		c3.778,0,6.828-3.059,6.828-6.825v-13.656c0-3.765-3.05-6.824-6.828-6.824H190.692c-7.915,0-13.653,5.738-13.653,13.652v68.266
		c0,7.914,5.738,13.652,13.653,13.652H391.09c10.547,8.52,23.945,13.657,38.535,13.657c33.879,0,61.442-27.567,61.442-61.442
		C491.067,394.494,485.93,381.1,477.41,370.549L477.41,370.549z M429.625,456.869c-26.344,0-47.785-21.433-47.785-47.785
		c0-26.351,21.441-47.785,47.785-47.785c26.344,0,47.785,21.434,47.785,47.785C477.41,435.436,455.969,456.869,429.625,456.869
		L429.625,456.869z M429.625,456.869"/>
	<path fill="#222C6B" d="M436.453,108.709c0-3.765-3.054-6.824-6.828-6.824H163.387c0-22.59-18.371-40.961-40.961-40.961
		s-40.961,18.371-40.961,40.961v327.68c0,22.589,18.371,40.961,40.961,40.961h34.133c3.769,0,6.828-3.059,6.828-6.829
		c0-3.769-3.059-6.828-6.828-6.828h-34.133c-15.063,0-27.309-12.246-27.309-27.304c0-15.059,12.25-27.305,27.309-27.305
		c15.059,0,27.305,12.246,27.305,27.305c0,3.769,3.058,6.828,6.828,6.828c3.765,0,6.824-3.059,6.824-6.828V115.537h266.242
		C433.399,115.537,436.453,112.479,436.453,108.709L436.453,108.709z M149.731,399.115c-7.258-6.511-16.805-10.511-27.305-10.511
		c-10.5,0-20.051,4-27.309,10.511v-297.23c0-15.063,12.25-27.309,27.309-27.309c15.059,0,27.305,12.246,27.305,27.309V399.115z
		 M149.731,399.115"/>
	<path fill="#F67426" d="M342.879,154.498c1.332,1.328,3.078,2,4.824,2c1.75,0,3.496-0.672,4.828-2c2.668-2.672,2.668-6.984,0-9.652
		l-13.644-13.649c-0.637-0.636-1.387-1.132-2.227-1.48c-1.668-0.691-3.55-0.691-5.215,0c-0.839,0.348-1.589,0.844-2.226,1.48
		l-13.649,13.649c-2.667,2.668-2.667,6.98,0,9.652c2.672,2.668,6.985,2.668,9.657,0l2-2v158.188l-2-2
		c-2.672-2.672-6.985-2.672-9.657,0c-2.667,2.668-2.667,6.98,0,9.652l13.649,13.645c0.637,0.636,1.387,1.132,2.226,1.48
		c0.832,0.352,1.719,0.527,2.606,0.527s1.777-0.175,2.609-0.527c0.84-0.348,1.59-0.844,2.227-1.48l13.644-13.645
		c2.672-2.672,2.672-6.984,0-9.652c-2.668-2.672-6.984-2.672-9.652,0l-2,2V152.498L342.879,154.498z M342.879,154.498"/>
</g>
</svg>
