<?xml version="1.0" encoding="utf-8"?>
<!-- Generator: Adobe Illustrator 17.0.0, SVG Export Plug-In . SVG Version: 6.00 Build 0)  -->
<!DOCTYPE svg PUBLIC "-//W3C//DTD SVG 1.1//EN" "http://www.w3.org/Graphics/SVG/1.1/DTD/svg11.dtd">
<svg version="1.1" id="Шар_1" xmlns="http://www.w3.org/2000/svg" xmlns:xlink="http://www.w3.org/1999/xlink" x="0px" y="0px"
	 width="60px" height="60px" viewBox="0 0 60 60" enable-background="new 0 0 60 60" xml:space="preserve">
<g>
	<path fill="#3E92F9" d="M30,3c14.888,0,27,12.112,27,27S44.888,57,30,57S3,44.888,3,30S15.112,3,30,3 M30,0C13.431,0,0,13.431,0,30
		s13.431,30,30,30s30-13.431,30-30S46.569,0,30,0L30,0z"/>
	<path fill="#3E92F9" d="M32.866,40c-0.339,0-0.68-0.114-0.961-0.349l-10.472-8.75c-0.347-0.29-0.544-0.721-0.538-1.172
		c0.007-0.452,0.217-0.877,0.572-1.157l10.472-8.25c0.651-0.514,1.594-0.401,2.107,0.25c0.513,0.651,0.4,1.594-0.25,2.106
		l-9.021,7.106l9.054,7.564c0.636,0.531,0.721,1.478,0.189,2.113C33.722,39.816,33.296,40,32.866,40z"/>
</g>
</svg>
