<?xml version="1.0" encoding="utf-8"?>
<!-- Generator: Adobe Illustrator 17.0.0, SVG Export Plug-In . SVG Version: 6.00 Build 0)  -->
<!DOCTYPE svg PUBLIC "-//W3C//DTD SVG 1.1//EN" "http://www.w3.org/Graphics/SVG/1.1/DTD/svg11.dtd">
<svg version="1.1" id="Шар_1" xmlns="http://www.w3.org/2000/svg" xmlns:xlink="http://www.w3.org/1999/xlink" x="0px" y="0px"
	 width="60px" height="60px" viewBox="0 0 60 60" enable-background="new 0 0 60 60" xml:space="preserve">
<g>
	<g>
		<defs>
			<rect id="SVGID_1_" x="15.12" y="8.52" width="29.76" height="42.96"/>
		</defs>
		<clipPath id="SVGID_2_">
			<use xlink:href="#SVGID_1_"  overflow="visible"/>
		</clipPath>
		<path clip-path="url(#SVGID_2_)" fill="#1081E0" d="M39.944,13.178c-5.679-5.676-14.886-5.676-20.566,0
			c-5.117,5.117-5.692,14.754-1.348,20.543l11.633,16.797l11.633-16.797C45.636,27.932,45.061,18.295,39.944,13.178L39.944,13.178z
			 M29.804,28.12c-2.653,0-4.801-2.149-4.801-4.801c0-2.649,2.148-4.801,4.801-4.801c2.652,0,4.8,2.152,4.8,4.801
			C34.604,25.971,32.456,28.12,29.804,28.12L29.804,28.12z M29.804,28.12"/>
	</g>
	<circle fill="#FFFFFF" cx="30" cy="23" r="5.667"/>
</g>
</svg>
